<svg width="150" height="150" viewBox="0 0 150 150" fill="none" xmlns="http://www.w3.org/2000/svg">
<g clip-path="url(#clip0_43602_11)">
<path d="M29.3848 0.410209C26.3379 1.4063 24.2285 3.2813 22.8809 6.1524C22.2363 7.52935 22.1191 8.26177 22.0313 11.1915L21.9141 14.6192L14.2383 14.7071C7.17773 14.795 6.47461 14.8536 5.24414 15.4102C3.31055 16.3184 1.9043 17.6954 0.966797 19.5704L0.146484 21.2403V76.4649V131.69L0.761719 133.037C1.66992 134.971 3.04688 136.377 4.92188 137.315L6.5918 138.135L49.6875 138.223L92.7832 138.281L95.1856 140.654C99.3457 144.727 104.209 147.481 110.127 149.033C112.5 149.678 113.643 149.795 117.334 149.824C122.227 149.854 124.453 149.531 128.32 148.154C133.33 146.426 136.992 144.082 140.771 140.186C149.941 130.781 152.461 117.305 147.363 105.059C145.342 100.195 140.537 94.2481 136.465 91.5528L134.766 90.4395L134.707 55.8399C134.619 21.3575 134.619 21.2403 134.004 19.8926C133.096 17.959 131.719 16.5528 129.844 15.6153L128.174 14.795L120.527 14.7071L112.852 14.6192L112.764 11.1915C112.646 7.9981 112.588 7.61724 111.68 5.80083C110.566 3.54497 108.984 1.99224 106.67 0.908256C105.293 0.263724 104.619 0.146537 102.539 0.146537C100.459 0.146537 99.7852 0.263724 98.4082 0.908256C96.0938 1.99224 94.5117 3.54497 93.3984 5.80083C92.4902 7.61724 92.4316 7.9981 92.3145 11.1915L92.2266 14.6485H84.9609H77.6953L77.5781 11.1915C77.4902 8.26177 77.3731 7.52935 76.6992 6.1231C75.6445 3.80865 74.0918 2.22661 71.8359 1.11333C70.1074 0.263724 69.6094 0.146537 67.3828 0.146537C65.1563 0.146537 64.6582 0.263724 62.9297 1.11333C60.6738 2.22661 59.1211 3.80865 58.0664 6.1231C57.3926 7.52935 57.2754 8.26177 57.1875 11.1915L57.0703 14.6485H49.8047H42.5391L42.4219 11.1915C42.334 8.26177 42.2168 7.52935 41.543 6.1231C39.873 2.49029 36.6211 0.293021 32.7246 0.11724C31.4648 0.0293493 30.1172 0.175834 29.3848 0.410209ZM34.2773 6.44536C36.0352 7.35357 36.6211 8.73052 36.6211 12.0118V14.6485H32.2266H27.832V11.9239C27.8613 8.73052 28.3301 7.61724 30.0586 6.56255C31.4648 5.71294 32.7539 5.68365 34.2773 6.44536ZM69.4336 6.44536C71.1914 7.35357 71.7773 8.73052 71.7773 12.0118V14.6485H67.3828H62.9883V11.9239C63.0176 8.73052 63.4863 7.61724 65.2148 6.56255C66.6211 5.71294 67.9102 5.68365 69.4336 6.44536ZM104.59 6.44536C106.348 7.35357 106.934 8.73052 106.934 12.0118V14.6485H102.539H98.1445V11.9239C98.1738 8.73052 98.6426 7.61724 100.371 6.56255C101.777 5.71294 103.066 5.68365 104.59 6.44536ZM22.0313 22.5001C22.2949 26.2793 24.375 29.4434 27.6563 31.0547C30.9082 32.6661 33.8086 32.5196 34.7168 30.7325C35.8301 28.6231 34.4238 26.3672 32.0215 26.3672C30.8203 26.3672 29.0039 25.1661 28.3887 23.9649C28.0957 23.379 27.832 22.3536 27.832 21.6797V20.5079H42.4512H57.041L57.1875 22.5001C57.4512 26.2793 59.5313 29.4434 62.8125 31.0547C66.0645 32.6661 68.9648 32.5196 69.8731 30.7325C70.957 28.6524 69.5801 26.3672 67.207 26.3672C65.0684 26.3672 62.9883 24.0528 62.9883 21.6797V20.5079H77.6074H92.1973L92.3438 22.5586C92.6953 27.5098 96.5039 31.5528 101.338 32.1387C103.154 32.3438 104.473 31.8458 105.029 30.7325C106.113 28.6524 104.736 26.3672 102.363 26.3672C100.225 26.3672 98.1445 24.0528 98.1445 21.6797V20.5079H112.354C122.725 20.5079 126.738 20.5958 127.295 20.8594C128.789 21.5333 128.906 22.1778 128.906 30.4688V38.086H67.3828H5.85938V30.3809C5.88867 24.5801 5.97656 22.5293 6.26953 22.002C7.03125 20.6251 7.58789 20.5372 14.9707 20.5079H21.8848L22.0313 22.5001ZM128.906 65.7715V87.5684L127.676 87.129C125.537 86.3672 122.432 85.8106 119.385 85.6348C110.508 85.1368 101.836 88.418 95.3613 94.7754C91.4648 98.584 89.1211 102.246 87.3926 107.227C86.0156 111.094 85.6934 113.32 85.7227 118.213C85.752 123.076 86.3672 126.182 88.125 130.342L89.0039 132.422H48.6035C17.9297 132.422 8.05664 132.334 7.4707 132.07C5.77148 131.309 5.85938 133.857 5.85938 87.0118V43.9454H67.3828H128.906V65.7715ZM124.365 92.2852C133.535 94.6583 140.771 101.895 143.291 111.182C143.818 113.086 143.936 114.316 143.936 117.773C143.936 121.231 143.818 122.461 143.291 124.365C140.771 133.652 133.652 140.801 124.365 143.291C121.289 144.141 114.844 144.229 111.826 143.467C102.217 141.065 94.834 133.857 92.2559 124.365C91.3184 120.996 91.3184 114.551 92.2559 111.182C94.9512 101.191 102.979 93.7501 113.027 91.8458C116.074 91.2598 121.289 91.4649 124.365 92.2852Z" fill="#F64556"/>
<path d="M29.8242 53.2031C29.3848 53.4375 28.8867 53.877 28.7109 54.1992C28.5352 54.5215 28.418 57.0117 28.418 60.1758V65.5957L22.3828 65.6836L16.3477 65.7715L15.498 66.7383C15.0293 67.2656 14.6484 68.0273 14.6484 68.4375C14.6484 69.4043 15.3809 70.8105 16.084 71.1914C16.4355 71.3672 19.0723 71.4844 22.5293 71.4844H28.418V78.3691V85.2539H22.7051C16.4648 85.2539 15.6445 85.4297 15 86.8652C14.5605 87.832 14.5605 88.5352 15 89.502C15.6445 90.9375 16.4648 91.1133 22.7051 91.1133H28.418V97.998V104.883H22.5293C19.0723 104.883 16.4355 105 16.084 105.176C15.3809 105.557 14.6484 106.963 14.6484 107.93C14.6484 108.34 15.0293 109.102 15.498 109.629L16.3477 110.596L22.3828 110.684L28.418 110.771V116.191C28.418 119.355 28.5352 121.846 28.7109 122.197C29.0918 122.9 30.498 123.633 31.4648 123.633C31.875 123.633 32.6367 123.252 33.1641 122.783L34.1309 121.934L34.2188 116.338L34.3066 110.742H40.2832H46.2305L46.3477 116.338L46.4355 121.934L47.4316 122.812C48.2812 123.574 48.5742 123.691 49.6289 123.545C50.4199 123.428 51.0645 123.105 51.4746 122.607C52.1191 121.875 52.1484 121.641 52.1484 116.279V110.742H58.3008H64.4531V116.016C64.4531 121.787 64.6289 122.637 66.0645 123.281C67.0312 123.721 67.7344 123.721 68.7012 123.281C70.1367 122.637 70.3125 121.787 70.3125 116.016V110.742H74.2383C76.377 110.742 78.5449 110.596 79.0723 110.42C80.9473 109.775 81.4453 107.197 80.0098 105.732L79.1602 104.883H74.7363H70.3125V97.998V91.1133H76.4648H82.6172V92.4316C82.6172 93.457 82.793 93.9551 83.3203 94.4824C85.2832 96.4453 88.0078 95.3027 88.3887 92.3438C88.5352 91.2891 88.6523 91.1133 89.2676 91.1133C90.8496 91.1133 92.2852 89.7363 92.2852 88.1836C92.2852 86.6309 90.8496 85.2539 89.209 85.2539H88.4766V78.3691V71.4844H94.4824H100.488V75.5859C100.488 80.2148 100.752 81.0938 102.305 81.9141C103.066 82.2949 103.418 82.3242 104.355 82.0605C106.113 81.5332 106.348 80.7422 106.348 75.7324V71.4844H112.236C115.693 71.4844 118.33 71.3672 118.682 71.1914C119.385 70.8105 120.117 69.4043 120.117 68.4375C120.117 68.0273 119.736 67.2656 119.268 66.7383L118.418 65.7715L112.383 65.6836L106.348 65.5957V60.1758C106.348 57.0117 106.23 54.5215 106.055 54.1699C105.674 53.4668 104.268 52.7344 103.301 52.7344C102.891 52.7344 102.129 53.1152 101.602 53.584L100.635 54.4336L100.547 60.0293L100.459 65.625H94.4824H88.5352L88.418 60.0293L88.3301 54.4336L87.334 53.5547C86.4844 52.793 86.1914 52.6758 85.1367 52.8223C84.3457 52.9395 83.7012 53.2617 83.291 53.7598C82.6465 54.4922 82.6172 54.7266 82.6172 60.0879V65.625H76.4648H70.3125V60.3516C70.3125 56.3379 70.2246 54.8438 69.9023 54.2285C68.877 52.2949 65.8887 52.2949 64.8633 54.2285C64.541 54.8438 64.4531 56.3379 64.4531 60.3516V65.625H58.3008H52.1484V60.0879C52.1484 54.7266 52.1191 54.4922 51.4746 53.7598C51.0645 53.2617 50.4199 52.9395 49.6289 52.8223C48.5742 52.6758 48.2812 52.793 47.4316 53.5547L46.4355 54.4336L46.3477 60.0293L46.2305 65.625H40.2832H34.3066L34.2188 60.0293L34.1309 54.4336L33.1641 53.584C32.1094 52.6465 31.0547 52.5 29.8242 53.2031ZM46.2891 78.3691V85.2539H40.2832H34.2773V78.3691V71.4844H40.2832H46.2891V78.3691ZM64.4531 78.3691V85.2539H58.3008H52.1484V78.3691V71.4844H58.3008H64.4531V78.3691ZM82.5586 78.4277L82.6172 85.2539H76.4648H70.3125V78.3691V71.4844L76.4062 71.543L82.4707 71.6309L82.5586 78.4277ZM46.2891 97.998V104.883H40.2832H34.2773V97.998V91.1133H40.2832H46.2891V97.998ZM64.4531 97.998V104.883H58.3008H52.1484V97.998V91.1133H58.3008H64.4531V97.998Z" fill="#F64556"/>
<path d="M107.549 106.465C106.23 107.197 105.703 108.926 106.377 110.244C106.553 110.596 108.223 112.441 110.098 114.316L113.496 117.773L109.951 121.348C107.871 123.457 106.318 125.303 106.201 125.771C105.645 127.998 107.549 129.902 109.775 129.346C110.244 129.229 112.09 127.676 114.17 125.596L117.773 122.051L121.377 125.596C123.457 127.676 125.303 129.229 125.771 129.346C127.998 129.902 129.902 127.998 129.346 125.771C129.229 125.303 127.676 123.457 125.596 121.377L122.051 117.773L125.596 114.17C127.676 112.09 129.229 110.244 129.346 109.775C129.902 107.549 127.998 105.645 125.771 106.201C125.303 106.318 123.457 107.871 121.348 109.951L117.773 113.496L114.316 110.098C112.441 108.223 110.596 106.553 110.244 106.377C109.395 105.967 108.428 105.996 107.549 106.465Z" fill="#F64556"/>
</g>
<defs>
<clipPath id="clip0_43602_11">
<rect width="150" height="150" fill="white"/>
</clipPath>
</defs>
</svg>
