<svg width="24" height="28" viewBox="0 0 24 28" fill="none" xmlns="http://www.w3.org/2000/svg">
<path d="M11.6761 2.33331C11.1026 2.33331 10.5546 2.57168 10.1486 2.99868L9.67193 3.49998H4.12516C3.97815 3.49779 3.8322 3.52635 3.69579 3.584C3.55937 3.64165 3.43521 3.72724 3.33052 3.83579C3.22583 3.94434 3.1427 4.0737 3.08596 4.21633C3.02922 4.35896 3 4.51203 3 4.66665C3 4.82126 3.02922 4.97433 3.08596 5.11696C3.1427 5.2596 3.22583 5.38895 3.33052 5.4975C3.43521 5.60605 3.55937 5.69164 3.69579 5.74929C3.8322 5.80694 3.97815 5.8355 4.12516 5.83331H21.8748C22.0218 5.8355 22.1678 5.80694 22.3042 5.74929C22.4406 5.69164 22.5648 5.60605 22.6695 5.4975C22.7742 5.38895 22.8573 5.2596 22.914 5.11696C22.9708 4.97433 23 4.82126 23 4.66665C23 4.51203 22.9708 4.35896 22.914 4.21633C22.8573 4.0737 22.7742 3.94434 22.6695 3.83579C22.5648 3.72724 22.4406 3.64165 22.3042 3.584C22.1678 3.52635 22.0218 3.49779 21.8748 3.49998H16.3281L15.8514 2.99868C15.4465 2.57168 14.8974 2.33331 14.3239 2.33331H11.6761ZM4.53033 8.16665L6.2247 23.6409C6.37113 24.7959 7.31677 25.6666 8.42391 25.6666H17.5739C18.6811 25.6666 19.6278 24.7973 19.7753 23.6318L21.4697 8.16665H4.53033Z" fill="#F64556"/>
</svg>
