<svg width="60" height="50" viewBox="0 0 60 50" fill="none" xmlns="http://www.w3.org/2000/svg">
<path d="M19.8782 3.26965C19.0236 3.58328 18.7661 4.05848 18.7661 5.27498V6.16835L15.6171 6.19686C12.6437 6.22537 12.4447 6.23488 12.1403 6.42495C11.9647 6.5295 11.7072 6.73858 11.5784 6.88114C11.3326 7.13775 11.3326 7.20427 11.2974 17.573L11.274 27.9988L10.5014 28.265C5.51449 30.0327 2.81033 34.6041 4.19168 38.9093C5.21013 42.0646 8.30061 44.5452 12.3276 45.448L13.3226 45.6666H34.1834H55.0441L55.3602 45.467C55.5358 45.3625 55.7933 45.1534 55.9221 45.0109L56.1679 44.7542V25.946V7.13775L55.9221 6.88114C55.7933 6.73858 55.5358 6.5295 55.3602 6.42495C55.0558 6.23488 54.8568 6.22537 51.8951 6.19686L48.7578 6.16835L48.711 5.13242C48.6758 4.02046 48.5705 3.80187 47.8681 3.3837C47.4116 3.10809 46.3112 3.10809 45.8546 3.3837C45.1522 3.80187 45.0469 4.02046 45.0118 5.14192L44.9649 6.17785H33.7502H22.5355L22.4887 5.14192C22.4536 4.02046 22.3482 3.80187 21.6693 3.3932C21.2713 3.15561 20.3465 3.08908 19.8782 3.26965ZM18.7895 10.255C18.8246 11.3765 18.93 11.5951 19.6324 12.0133C20.0889 12.2889 21.1893 12.2889 21.6459 12.0133C22.3482 11.5951 22.4536 11.3765 22.4887 10.255L22.5355 9.2191H33.7502H44.9649L45.0118 10.255C45.0469 11.3765 45.1522 11.5951 45.8546 12.0133C46.3112 12.2889 47.4116 12.2889 47.8681 12.0133C48.5705 11.5951 48.6758 11.3765 48.711 10.255L48.7578 9.2191H50.6191H52.4804V12.2604V15.3016H33.7502H15.0201V12.2604V9.2191H16.8814H18.7427L18.7895 10.255ZM52.4804 30.5079V42.6729H37.9528C23.7647 42.6729 23.4252 42.6729 23.5774 42.4923C24.7832 41.1618 25.2631 40.43 25.7197 39.261C27.3469 35.0888 24.9588 30.5269 20.1006 28.493C18.8129 27.9513 17.7359 27.6852 16.2024 27.5427L15.0201 27.4286V22.8857V18.3429H33.7502H52.4804V30.5079ZM16.5887 30.6504C19.9718 31.2302 22.5121 33.7772 22.5121 36.5904C22.5121 39.8977 19.0939 42.6729 15.0201 42.6729C12.2457 42.6729 9.54148 41.3138 8.35914 39.3275C7.25874 37.4838 7.25874 35.697 8.35914 33.8533C9.79902 31.4298 13.2758 30.0802 16.5887 30.6504Z" fill="#F64556"/>
<path d="M11.8624 32.5915C11.3453 32.7399 10.8048 33.2994 10.6403 33.8703C10.4405 34.6011 10.652 35.1149 11.5686 36.0284L12.3442 36.8163L11.5686 37.5813C10.652 38.4947 10.511 38.7231 10.511 39.374C10.511 40.413 11.2866 41.1666 12.356 41.1666C13.0258 41.1666 13.2608 41.0296 14.2127 40.139L15 39.3854L15.7991 40.139C16.7393 41.0296 16.9743 41.1666 17.6441 41.1666C18.7135 41.1666 19.4891 40.413 19.4891 39.374C19.4891 38.7231 19.3481 38.4947 18.4315 37.5813L17.6559 36.8163L18.4315 36.0284C19.3481 35.1149 19.5596 34.6011 19.3598 33.8703C19.1836 33.2652 18.643 32.7399 18.0202 32.5687C17.2681 32.3745 16.7393 32.5801 15.7991 33.4707L14.9883 34.2243L14.2597 33.5164C13.2608 32.5572 12.7203 32.3517 11.8624 32.5915Z" fill="#F64556"/>
</svg>
