<svg width="200" height="200" viewBox="0 0 200 200" fill="none" xmlns="http://www.w3.org/2000/svg">
<path d="M77.9297 5.42969C75.2344 6.09375 73.0469 7.89062 71.6406 10.5469C70.9766 11.7969 70.8984 12.9297 70.8984 22.3438C70.8984 34.2578 70.8203 33.9844 74.1797 34.375L76.0937 34.5703L66.1719 46.6797C59.7266 54.5312 55.7812 59.6875 54.9609 61.3281L53.7109 63.8281L53.5937 73.6328C53.5156 78.9844 53.5547 83.9453 53.7109 84.6484C53.8281 85.3516 54.5312 86.7969 55.3125 87.9297C56.6797 89.9609 56.6797 89.9609 55.8984 90.7812C55.4687 91.25 54.7656 92.3828 54.3359 93.3594C53.5937 94.9609 53.5156 95.8984 53.5156 104.297C53.5156 112.695 53.5937 113.633 54.3359 115.234C54.7656 116.211 55.4687 117.383 55.9375 117.852L56.7187 118.672L55.5859 120.391C53.6328 123.203 53.5156 124.062 53.5156 133.75C53.5156 141.992 53.5937 142.93 54.3359 144.531C54.7656 145.508 55.4687 146.641 55.8984 147.109C56.6797 147.93 56.6797 147.93 55.3125 149.961C54.5703 151.055 53.8281 152.695 53.7109 153.633C53.5937 154.531 53.5156 161.758 53.5937 169.727L53.7109 184.18L54.7266 186.367C56.7578 190.664 60.625 193.633 65.3906 194.492C68.5937 195.078 131.406 195.078 134.57 194.492C139.414 193.594 142.93 191.016 145 186.797L146.289 184.18L146.406 169.727C146.484 161.797 146.406 154.531 146.289 153.633C146.172 152.695 145.43 151.055 144.687 149.961C143.32 147.93 143.32 147.93 144.102 147.109C144.531 146.641 145.234 145.508 145.664 144.531C146.406 142.93 146.484 141.992 146.484 133.75C146.484 124.062 146.367 123.203 144.414 120.391L143.281 118.672L144.062 117.852C144.531 117.383 145.234 116.211 145.664 115.234C146.406 113.633 146.484 112.695 146.484 104.297C146.484 95.8984 146.406 94.9609 145.664 93.3594C145.234 92.3828 144.492 91.2109 144.062 90.7031L143.242 89.8438L144.023 88.9453C144.453 88.4766 145.234 87.3047 145.742 86.3281C146.602 84.6875 146.68 84.0625 146.797 76.4453C146.953 67.5 146.602 64.2969 145.117 61.1719C144.57 60.0781 139.57 53.5938 133.984 46.7578L123.828 34.375H125.547C126.641 34.375 127.578 34.1016 128.164 33.6328L129.102 32.8906V22.7734C129.102 11.7188 128.945 10.7422 126.836 8.35938C126.211 7.57812 124.922 6.60156 124.062 6.13281C122.461 5.27344 122.266 5.27344 100.781 5.19531C88.8672 5.15625 78.5937 5.27344 77.9297 5.42969ZM121.289 11.4062C123.203 12.2656 123.437 13.3594 123.437 21.2891V28.5156H100H76.5625V21.1719C76.6016 13.3594 76.7578 12.4609 78.5547 11.4844C79.8437 10.7812 119.727 10.7031 121.289 11.4062ZM127.539 48.2812C133.789 55.9375 139.297 63.0859 139.844 64.1797C140.742 66.0938 140.82 66.6797 140.937 73.6719C141.094 82.2656 140.859 83.75 138.867 85.5078L137.461 86.7188H100H62.5391L61.1328 85.5078C59.1406 83.75 58.9062 82.2656 59.0625 73.6719C59.1797 66.6797 59.2578 66.0938 60.1562 64.1797C60.7031 63.0859 66.25 55.9375 72.4609 48.2812L83.7891 34.4141H100H116.211L127.539 48.2812ZM137.656 93.125C138.359 93.3984 139.375 94.2578 139.883 94.9609C140.781 96.25 140.82 96.4844 140.82 104.375C140.82 111.914 140.781 112.5 140 113.555C139.57 114.141 138.594 114.961 137.852 115.312C136.602 115.977 134.023 116.016 100.078 116.016C60.0391 116.016 61.9141 116.133 60.1172 113.633C59.2187 112.344 59.1797 112.109 59.1797 104.492C59.1797 95.4688 59.4141 94.6094 62.2266 93.3203C63.7891 92.6172 65.3516 92.5781 100.117 92.5781C130.156 92.5781 136.562 92.6562 137.656 93.125ZM138.164 122.656C140.703 124.18 140.82 124.688 140.82 133.398C140.82 142.422 140.586 143.281 137.773 144.57C136.211 145.273 134.648 145.312 100 145.312C65.3516 145.312 63.7891 145.273 62.2266 144.57C59.4141 143.281 59.1797 142.422 59.1797 133.398C59.1797 124.688 59.2969 124.18 61.8359 122.656C63.0469 121.914 64.1016 121.875 100 121.875C135.898 121.875 136.953 121.914 138.164 122.656ZM138.867 152.383C139.687 153.125 140.391 154.18 140.625 155.156C140.898 156.172 141.016 161.211 140.937 169.453C140.82 181.68 140.781 182.305 139.961 183.789C139.492 184.648 138.555 185.898 137.812 186.602C135.156 189.141 136.523 189.062 100 189.062C63.4766 189.062 64.8437 189.141 62.1875 186.602C61.4453 185.898 60.5078 184.648 60.0391 183.789C59.2187 182.305 59.1797 181.68 59.0625 169.453C58.9844 161.211 59.1016 156.172 59.375 155.156C59.6094 154.18 60.3125 153.125 61.1328 152.383L62.5391 151.172H100H137.461L138.867 152.383Z" fill="#06AD51"/>
</svg>
