<svg width="24" height="24" viewBox="0 0 24 24" fill="none" xmlns="http://www.w3.org/2000/svg">
<g clip-path="url(#clip0_43602_37)">
<path d="M19.19 0.069152C18.6081 0.257181 18.458 0.369999 17.36 1.46527L16.3043 2.51823L18.8709 5.08953L21.4422 7.66553L22.4322 6.67837C23.4879 5.62541 23.7319 5.31516 23.8868 4.82629C24.0979 4.13998 24.051 3.51008 23.7319 2.84728C23.5536 2.47122 23.4879 2.39131 22.5261 1.43236C21.4469 0.351196 21.2592 0.214875 20.6445 0.0503491C20.2832 -0.0483661 19.5137 -0.0389647 19.19 0.069152Z" fill="#06AD51"/>
<path d="M8.1783 10.6641L1.50612 17.3485L0.745998 20.404C0.187636 22.6462 -0.00943239 23.4971 0.0187203 23.5911C0.0609493 23.7603 0.234557 23.9389 0.398781 23.9813C0.525468 24.0142 6.38592 22.5898 6.61583 22.4676C6.68152 22.4347 9.71732 19.4168 13.3631 15.7644L19.9883 9.12225L17.4171 6.54625L14.8505 3.97495L8.1783 10.6641Z" fill="#06AD51"/>
</g>
<defs>
<clipPath id="clip0_43602_37">
<rect width="24" height="24" fill="white"/>
</clipPath>
</defs>
</svg>
