<svg width="200" height="200" viewBox="0 0 200 200" fill="none" xmlns="http://www.w3.org/2000/svg">
<path d="M23.0468 6.7969C19.5703 7.4219 18.8671 7.65627 18.3593 8.63284C17.6171 9.96096 17.9687 11.5235 19.7656 15.0391C27.3046 29.6485 37.4218 38.9844 48.7499 41.6406C51.6796 42.3438 57.9296 42.4219 60.5859 41.836C61.5234 41.6016 62.4218 41.4063 62.6171 41.4063C62.7734 41.4063 62.8906 43.1641 62.8906 45.3125C62.8906 47.461 62.8124 49.2188 62.7343 49.2188C62.6171 49.2188 61.289 48.5156 59.6874 47.6953C49.9609 42.5 37.7734 42.0703 27.0312 46.5625C18.6718 50.0391 10.5078 58.0078 5.85932 67.1875C3.86713 71.0938 4.64838 73.8281 7.69525 73.8281C9.29682 73.8281 10.1562 72.9688 11.7187 69.9219C13.6718 66.0156 15.5468 63.3594 18.4374 60.3125C21.7968 56.7969 23.9453 55.1563 27.9687 53.1641C38.3203 48.0078 49.8437 48.711 59.8046 55.1172C61.7578 56.3672 63.8671 57.5 64.5312 57.6172C66.6406 58.086 68.9843 57.461 71.5624 55.7031C80.5468 49.5703 90.2343 48.086 99.9218 51.4063C114.883 56.5625 124.766 71.6016 126.016 91.0156C126.523 99.2969 124.258 109.648 120.117 118.047C119.531 119.18 117.031 123.867 114.531 128.438C109.961 136.758 109.961 136.797 108.789 136.563C108.164 136.484 103.398 135.43 98.2031 134.258C93.0468 133.086 87.3437 131.992 85.5078 131.836C82.539 131.602 82.1093 131.641 81.2109 132.383C79.9609 133.359 79.6484 134.688 80.3124 136.289C80.8203 137.5 81.1718 137.656 84.4921 138.086C85.5078 138.203 86.3281 138.438 86.3281 138.594C86.3281 138.75 85.9765 142.031 85.5468 145.859C84.5703 154.453 84.5703 155.156 85.5078 156.289C86.4453 157.461 88.7499 157.539 89.8828 156.367C90.5859 155.664 90.8593 154.414 91.6796 147.617C92.1874 143.242 92.6562 139.648 92.7343 139.57C92.8124 139.453 120.43 145.703 120.625 145.898C120.703 145.977 120.547 147.852 120.273 150.156C119.883 153.828 119.883 154.375 120.469 155.273C121.602 156.992 124.453 157.07 125.547 155.352C125.859 154.883 126.289 152.93 126.523 151.016C126.758 149.102 126.992 147.5 127.031 147.422C127.148 147.344 170.312 157.07 170.625 157.227C170.664 157.266 170.195 161.992 169.531 167.734C168.906 173.477 168.359 178.359 168.359 178.555C168.359 178.789 168.789 179.375 169.336 179.883C170.586 181.172 172.578 181.211 173.75 179.961C174.492 179.18 174.727 177.969 175.586 170.117C176.133 165.156 176.641 160.586 176.758 159.922L176.953 158.711L180.195 159.453C186.484 160.898 189.727 163.242 191.914 167.93C192.93 170.039 193.125 170.938 193.086 173.398C193.086 179.023 190.273 183.555 185.234 186.016L182.617 187.305L166.016 187.422L149.375 187.539L149.922 182.422C150.469 177.5 150.469 177.227 149.766 176.289C148.789 175 147.773 174.648 146.25 175.078C144.687 175.469 144.258 176.523 143.75 181.25C143.516 183.281 143.242 185.508 143.164 186.172L142.969 187.383L128.867 187.656C121.094 187.813 114.687 187.891 114.609 187.773C114.531 187.695 114.727 185.586 115.039 183.047C115.625 178.125 115.469 177.07 113.984 176.016C112.773 175.156 111.562 175.234 110.352 176.25C109.414 177.07 109.297 177.578 108.789 182.227C108.477 185.039 108.203 187.422 108.203 187.578C108.203 187.773 105.234 187.891 101.562 187.891C94.9218 187.891 94.9218 187.891 94.9218 186.992C94.9218 186.523 95.3124 182.773 95.7421 178.633C96.5234 171.641 96.5624 171.055 95.9374 170.156C94.8046 168.359 91.6406 168.438 90.664 170.234C90.4687 170.625 89.9218 174.375 89.4531 178.555C89.0234 182.734 88.5546 186.563 88.4374 187.07L88.2421 188.008L83.7499 187.734C78.4765 187.422 74.5312 186.289 70.5859 183.906C65.5078 180.859 61.0937 174.844 59.5703 168.945C58.789 165.977 58.789 159.883 59.5703 156.797C61.0156 151.055 65.7421 144.648 70.5468 141.836C74.0234 139.805 74.6093 139.141 74.6093 137.461C74.6093 136.328 74.3749 135.82 73.5937 135.195C72.2265 134.102 71.289 134.18 68.9453 135.391C64.9609 137.5 60.7812 141.211 58.0078 145.117L56.7578 146.836L54.2578 145.352C48.2031 141.836 44.6093 138.555 41.2109 133.359C38.1249 128.672 36.0156 127.344 31.6406 127.344C27.4218 127.344 23.0078 130.742 22.4218 134.414C22.2656 135.234 22.0703 135.938 21.914 135.938C21.6796 135.898 14.0234 121.914 11.5624 116.875C9.92182 113.633 8.12494 108.398 7.2265 104.453C6.289 100.313 6.05463 89.6875 6.79682 85.1953C7.34369 81.9922 7.34369 81.4063 6.83588 80.4297C6.01557 78.9063 3.86713 78.4766 2.42182 79.5703C0.742129 80.8203 0.273379 83.6719 0.234316 93.3594C0.195254 100.82 0.312441 102.227 1.09369 105.859C2.18744 110.586 4.414 117.07 6.24994 120.703C7.65619 123.477 17.9687 142.344 19.2578 144.492L20.0781 145.82L17.9296 145.547C12.9687 144.961 8.32025 144.805 6.95307 145.273C1.21088 147.188 -1.5235 154.023 1.36713 159.336C3.63275 163.438 5.39057 164.18 15.7421 165.313L23.789 166.172L21.8749 168.047C20.8203 169.102 19.4531 170.781 18.8671 171.797C17.9296 173.359 17.7734 174.063 17.7734 176.563C17.7734 178.789 18.0078 179.883 18.6328 181.055C20.4296 184.453 23.6328 186.289 27.6562 186.328C30.8593 186.328 32.5781 185.43 36.3281 181.875C39.4921 178.828 42.4609 176.875 46.4843 175.195C49.5703 173.867 53.5546 172.617 53.9062 172.852C54.0624 172.93 54.4921 173.867 54.8828 174.883C57.5781 181.953 64.2968 188.555 71.914 191.719C78.2421 194.336 76.6796 194.258 132.344 193.984C187.93 193.672 184.727 193.828 189.492 191.016C196.133 187.109 200.117 179.453 199.414 172.031C198.594 163.086 192.617 156.094 183.945 153.867L182.109 153.398L185.117 150.391C192.227 143.281 197.305 132.813 199.297 121.289C199.961 117.344 200.039 115.508 199.883 109.766C199.453 96.0938 196.211 87.6172 187.5 77.7735C183.867 73.5938 182.578 71.7969 180.742 68.1641C177.344 61.4453 175.937 55.8985 175.391 46.875C174.883 39.0625 174.453 36.3672 173.008 32.0703C171.25 26.9141 169.023 23.3203 165.039 19.336C162.227 16.5235 160.898 15.5078 158.477 14.2969C151.523 10.9766 144.414 10.9375 137.812 14.2578C132.109 17.1094 127.891 21.6797 124.609 28.5938C122.305 33.3985 121.523 37.0313 120.898 45.7031C120.586 49.9219 120.273 53.5938 120.156 53.9063C120.078 54.2188 119.883 55 119.727 55.586L119.492 56.6797L117.266 54.6485C110.391 48.3594 103.125 44.8438 94.5312 43.75C86.6015 42.6953 77.6171 44.4531 71.3671 48.2031L69.1406 49.5703V30.3125V11.0547L68.2421 10.2344C67.1093 9.17971 65.2343 9.14065 64.0234 10.1172C63.1249 10.8203 63.0859 11.0938 62.9687 16.7578L62.8515 22.6563L60.5859 19.6094C56.0156 13.5156 50.7812 9.88284 43.0859 7.57815C40.039 6.64065 38.9062 6.52346 32.8124 6.40627C28.5156 6.32815 24.8828 6.4844 23.0468 6.7969ZM40.8203 13.4766C46.2499 14.961 51.6796 18.4766 54.8828 22.5781C57.8124 26.2891 61.6406 34.5703 60.8203 35.4297C60.664 35.5469 58.6328 35.7422 56.3281 35.8594C53.2421 35.9766 51.4843 35.8594 49.6484 35.3516C42.539 33.5156 35.8203 28.125 30.039 19.7266C27.1484 15.5469 25.7421 13.0469 26.0937 12.6953C26.6015 12.1875 38.3593 12.7735 40.8203 13.4766ZM151.68 18.5547C158.125 20.2344 162.93 24.7266 166.016 31.9531C167.969 36.5235 168.672 40 169.141 47.6563C170 62.1485 173.789 71.836 182.344 81.5625C188.945 89.0625 191.68 94.6094 193.164 103.516C194.219 109.609 193.828 118.203 192.227 124.219C189.297 135.508 183.906 144.102 176.133 149.805L173.867 151.484L170.82 150.82C150.352 146.211 116.953 138.516 116.719 138.32C116.602 138.203 117.617 136.016 119.023 133.477L121.562 128.828L122.695 130.508C124.453 133.164 128.477 137.07 131.562 139.102C142.031 145.977 156.562 145.82 166.68 138.672C172.148 134.844 176.133 129.766 178.477 123.633C180.117 119.258 180.273 117.031 178.945 115.977C177.969 115.156 176.172 115 175 115.625C174.531 115.859 173.945 117.07 173.398 118.867C172.031 123.555 170.078 126.797 166.602 130.273C158.516 138.398 147.109 140.156 136.992 134.883C133.398 133.008 128.437 128.164 126.641 124.688L125.312 122.227L127.07 118.242C130.156 111.289 131.797 104.727 132.266 97.1485L132.539 93.086L134.336 91.875C138.984 88.75 143.281 87.3828 148.633 87.3438C153.086 87.3047 155.508 87.8906 160.117 90.1172C165.078 92.5 169.023 96.3672 171.367 101.211C172.266 103.008 173.125 105.195 173.281 106.055C173.633 107.93 175.312 109.766 176.758 109.766C178.203 109.766 179.687 108.164 179.687 106.523C179.687 104.766 178.672 101.445 177.266 98.6328C171.914 88.0469 162.266 81.7578 150.195 81.0156C145.508 80.7031 139.727 81.875 135.352 83.9844C133.633 84.8047 132.109 85.3906 131.992 85.3125C131.836 85.2344 131.602 84.336 131.484 83.3203C130.781 78.4766 128.164 70.7422 125.625 66.0547C124.648 64.1797 124.375 63.3203 124.609 62.6953C125.547 60.1953 126.641 53.4375 127.109 46.7969C127.891 36.6016 129.219 32.0313 133.008 26.7578C136.016 22.5391 139.805 19.7656 144.18 18.5938C146.953 17.8516 148.945 17.8516 151.68 18.5547ZM33.8281 134.297C34.2968 134.648 35.5078 136.25 36.5234 137.813C39.8046 142.891 44.9999 147.539 51.0937 150.859C52.6171 151.719 53.9062 152.578 53.9062 152.734C53.9062 152.93 53.6328 154.258 53.2812 155.742C52.9296 157.188 52.6171 160.195 52.5781 162.383L52.539 166.328L49.6093 167.188C46.1718 168.164 39.5312 171.25 36.8359 173.086C35.8203 173.789 33.5937 175.664 31.914 177.227C29.414 179.57 28.6328 180.078 27.5781 180.078C24.9218 180.078 23.164 177.383 24.3359 175.117C25.0781 173.75 29.1406 169.844 32.1484 167.617C34.5703 165.859 35.3124 164.609 34.9218 163.047C34.4531 161.211 33.4374 160.938 21.1718 159.57C14.7265 158.867 9.1015 158.086 8.67182 157.852C5.664 156.25 6.01557 152.109 9.21869 151.328C9.76557 151.172 15.1562 151.641 21.2109 152.305C34.2187 153.75 34.5312 153.75 35.5468 152.734C37.0312 151.25 36.6015 149.453 34.1015 146.523C29.8046 141.484 28.0078 138.125 28.5546 136.133C29.1406 133.945 32.1484 132.93 33.8281 134.297Z" fill="#06AD51"/>
</svg>
