<svg width="237" height="228" viewBox="0 0 237 228" fill="none" xmlns="http://www.w3.org/2000/svg">
<g clip-path="url(#clip0_43608_9)">
<path d="M171.803 0.465353C170.181 1.17807 169.765 2.78168 169.765 7.90433C169.765 12.537 169.811 12.7597 170.969 13.9179C172.312 15.1651 174.535 15.4769 175.832 14.4969C177.268 13.4279 177.639 12.0024 177.639 7.2807C177.639 2.64805 177.593 2.51441 176.296 1.22261C174.906 -0.113729 173.516 -0.336452 171.803 0.465353Z" fill="#06AD51"/>
<path d="M132.847 15.9669C131.551 16.4569 130.856 17.7487 130.856 19.575C130.856 20.8223 131.458 21.6241 134.7 24.7422C137.896 27.8158 138.823 28.4395 140.027 28.4395C142.25 28.4395 144.011 26.7468 143.964 24.6086C143.918 23.0941 143.501 22.515 139.981 19.2187C135.997 15.4324 135.163 15.076 132.847 15.9669Z" fill="#06AD51"/>
<path d="M207.469 19.1741C202.883 23.5395 202.374 24.8313 204.273 27.014C205.246 28.1276 205.894 28.4395 207.191 28.4395C208.627 28.4395 209.275 27.994 212.703 24.7422C216.131 21.4014 216.548 20.8668 216.548 19.3523C216.548 17.2142 214.88 15.5215 212.796 15.5215C211.591 15.5215 210.665 16.1451 207.469 19.1741Z" fill="#06AD51"/>
<path d="M166.291 27.3704C155.266 29.954 146.049 38.6848 143.038 49.4201C141.973 53.2509 141.973 60.6454 143.038 64.4762C149.198 86.6595 177.778 94.8112 194.916 79.2205C201.911 72.9397 205.06 66.0353 205.153 57.1709C205.199 48.0838 202.003 41.0902 194.963 34.6758C189.034 29.3304 181.808 26.6132 173.516 26.7023C171.062 26.7023 167.819 27.0141 166.291 27.3704ZM180.001 35.0321C188.848 37.393 195.843 45.0547 197.093 53.6964C199.409 69.9107 183.707 83.185 167.402 78.8642C158.648 76.5478 151.839 69.1534 150.31 60.4226C148.365 49.5537 155.961 38.1503 167.171 35.0767C170.923 34.0522 176.203 34.0076 180.001 35.0321Z" fill="#06AD51"/>
<path d="M117.654 53.251C114.644 53.9637 113.578 57.6164 115.802 59.6209C116.821 60.5118 117.562 60.69 121.036 60.8682C126.548 61.1354 128.864 60.4673 129.744 58.4627C130.3 57.1709 130.3 56.7255 129.744 55.4337C129.234 54.231 128.679 53.7855 127.289 53.4292C125.529 52.9392 119.415 52.8501 117.654 53.251Z" fill="#06AD51"/>
<path d="M219.883 53.4291C218.864 53.7409 218.123 54.3645 217.613 55.3891C216.872 56.859 216.872 57.0372 217.613 58.5072C218.586 60.5117 220.902 61.1353 226.368 60.8681C229.842 60.6899 230.583 60.5117 231.602 59.6208C233.223 58.1954 233.177 55.7009 231.602 54.2754C230.536 53.2955 229.934 53.1618 225.904 53.0727C223.449 53.0282 220.717 53.1618 219.883 53.4291Z" fill="#06AD51"/>
<path d="M50.7222 57.2154C48.3135 57.6608 43.4963 59.309 41.9214 60.1553C36.6872 63.1398 32.2405 67.7279 30.2024 72.0933C29.6929 73.2069 29.276 74.1424 29.2297 74.1869C29.1834 74.276 27.9791 73.8751 26.5895 73.3851C24.5514 72.6279 23.3471 72.4942 20.151 72.6279C15.38 72.8506 12.5545 74.0978 9.5437 77.216C6.44026 80.4677 5.56018 82.7395 5.56018 87.4613C5.56018 92.0494 6.44026 94.2766 9.45106 97.5729L11.1649 99.3992L8.52466 100.691C5.42122 102.161 2.41042 105.146 1.02082 108.085C0.233384 109.689 0.00178426 111.025 0.00178426 113.965C0.00178426 120.781 -0.693016 119.934 25.3388 144.969L48.0356 166.885L38.1695 167.063C29.3687 167.241 27.9327 167.419 25.6167 168.265C22.0964 169.557 18.7151 172.675 17.0475 176.105C15.2411 179.847 15.2411 184.792 17.0012 188.4C18.6687 191.919 21.1237 194.324 24.6903 196.017C27.4695 197.353 28.118 197.442 33.3985 197.62L39.0495 197.799L39.2348 208.578C39.4201 220.383 39.5591 221.006 42.3846 224.169C45.1175 227.154 46.9703 227.777 53.0382 227.777C58.9671 227.777 60.7273 227.198 63.5991 224.392C66.5636 221.452 66.7026 220.873 66.8415 208.712L66.9805 197.71H126.177H185.328L183.707 200.917C182.086 203.99 182.039 204.302 182.039 209.024C182.039 213.657 182.132 214.147 183.522 216.997C185.328 220.695 188.941 224.258 192.554 225.951C204.505 231.564 218.632 224.525 220.809 211.875C221.55 207.42 220.809 204.124 217.567 198.021C217.474 197.843 219.373 197.71 221.736 197.71C227.109 197.71 230.073 196.908 232.667 194.77C236.048 192.008 236.651 190.404 236.836 183.366C236.975 178.6 236.836 176.773 236.28 175.125C235.261 172.23 233.177 169.869 230.258 168.399L227.896 167.196L213.166 167.107C205.06 167.063 198.298 166.974 198.205 166.84C198.066 166.751 198.251 166.083 198.529 165.37C198.807 164.657 199.039 162.831 199.039 161.272C199.085 155.927 198.205 154.857 181.02 138.376C167.449 125.369 165.457 123.632 162.77 122.429C158.509 120.558 154.85 119.979 150.912 120.647C144.891 121.627 143.733 122.429 131.087 134.456C124.742 140.514 118.859 145.815 118.025 146.216C116.219 147.107 113.717 147.151 111.726 146.305C110.892 145.949 101.35 137.129 89.8626 126.037L69.4818 106.348L70.8714 105.413C73.6042 103.542 77.4488 99.3992 79.1163 96.5484C89.1678 79.265 76.754 57.9281 56.2806 57.1708C53.8719 57.0817 51.3707 57.1263 50.7222 57.2154ZM59.1524 65.0107C70.4545 67.327 77.3098 78.5078 73.9285 88.9758C72.261 94.143 68.787 98.1075 63.877 100.424C59.5693 102.428 59.4766 102.384 46.9239 90.6239C39.698 83.8977 35.8998 80.0223 35.8998 79.4432C35.8998 78.9532 36.5946 77.1269 37.4283 75.4342C41.4119 67.4607 50.259 63.2289 59.1524 65.0107ZM23.1618 80.1559C24.6903 80.5568 27.4232 82.9177 39.3738 94.3212L53.733 108.041L56.8827 108.531C59.4767 108.932 60.542 109.377 62.5801 110.847C65.4519 112.941 66.0541 113.876 64.9424 114.5C63.7381 115.124 62.7191 117.395 63.0433 118.643C63.4138 120.113 65.313 121.538 66.8878 121.538C67.5826 121.538 68.8333 121.048 69.7134 120.469L71.3346 119.4L79.3016 126.839L87.2686 134.278L86.9907 136.06C86.8054 137.53 86.9444 138.064 87.9171 139.178C88.9362 140.291 89.3994 140.47 91.1595 140.38C93.105 140.336 93.3829 140.47 95.8378 142.875L98.4781 145.459L90.6037 151.16L82.683 156.817L48.7304 124.389C30.1098 106.571 14.4536 91.3812 14.0367 90.6239C11.8597 86.8376 14.0367 81.8932 18.6224 80.3341C20.7995 79.5768 20.8921 79.5768 23.1618 80.1559ZM18.0666 106.883C19.6415 107.284 24.783 112.05 55.0299 141.049L90.0942 174.769L158.648 174.992C223.588 175.214 227.201 175.259 227.989 176.016C228.684 176.64 228.869 177.753 228.961 182.074C229.1 187.152 229.1 187.375 227.989 188.622L226.831 189.914L155.313 190.048L83.841 190.137L45.9975 153.744C12.4155 121.404 8.1541 117.128 7.87618 115.614C7.36666 113.074 8.01514 110.981 9.82162 109.021C12.0913 106.616 14.5463 105.947 18.0666 106.883ZM159.018 129.111C160.64 129.823 164.53 133.253 174.767 143.053C182.271 150.225 188.987 156.862 189.728 157.797C192.044 160.826 191.35 164.791 188.246 166.35C186.115 167.375 183.568 167.152 181.53 165.682C180.557 164.969 174.397 159.223 167.912 152.942C161.427 146.661 155.637 141.316 155.081 141.093C153.367 140.47 151.746 141.36 147.763 145.191L144.057 148.71L139.888 144.701L135.719 140.692L140.815 135.748C143.64 133.031 146.512 130.402 147.253 129.868C150.403 127.685 154.942 127.418 159.018 129.111ZM131.782 160.515L125.066 166.974H109.085H93.0586L90.65 164.613L88.2414 162.296L96.2084 156.55L104.129 150.804L105.333 151.561C108.622 153.61 110.707 154.189 114.644 154.234C118.21 154.278 118.905 154.145 121.592 152.853C123.445 151.962 125.668 150.403 127.382 148.71L130.161 146.038L134.33 150.047L138.499 154.056L131.782 160.515ZM162.585 158.51L171.386 166.974H153.784H136.183L144.983 158.51C149.801 153.833 153.784 150.047 153.784 150.047C153.784 150.047 157.768 153.833 162.585 158.51ZM64.3866 182.564L72.261 190.137H51.6486C38.9106 190.137 30.3877 189.959 29.3223 189.691C26.9137 189.023 24.9683 187.331 24.0419 185.014C23.1155 182.564 23.3934 180.426 24.9683 178.11C27.0527 175.081 27.5159 174.992 42.8478 174.992H56.5122L64.3866 182.564ZM59.0598 207.777V217.844L57.7165 219.136C56.4659 220.338 56.0953 220.427 53.0845 220.427C50.3516 220.427 49.6568 220.249 48.5451 219.358L47.2482 218.289L47.1092 207.999L46.9703 197.71H52.9919H59.0598V207.777ZM206.589 198.734C208.488 199.669 210.897 202.03 211.916 203.946C215.529 210.806 210.711 219.358 202.698 220.294C195.75 221.051 189.682 215.839 189.682 209.113C189.728 204.391 192.044 200.783 196.399 198.734C198.344 197.843 199.224 197.71 201.957 197.843C203.763 197.932 205.848 198.333 206.589 198.734Z" fill="#06AD51"/>
<path d="M198.715 206.396C196.815 208.177 197.186 211.073 199.456 212.187C201.262 213.122 202.42 213.033 203.763 211.83C205.616 210.316 205.755 208.4 204.273 206.708C202.698 204.881 200.382 204.748 198.715 206.396Z" fill="#06AD51"/>
<path d="M134.793 89.0649C132.662 91.0248 130.856 93.1184 130.763 93.6975C130.485 95.0784 131.458 97.3057 132.662 97.8847C134.839 99.0429 135.951 98.5084 139.981 94.6775C143.408 91.3367 143.825 90.8021 143.825 89.2876C143.825 87.1495 142.158 85.4568 140.073 85.4568C138.869 85.4568 137.943 86.0804 134.793 89.0649Z" fill="#06AD51"/>
<path d="M204.736 86.4813C203.763 87.2386 203.485 87.9067 203.485 89.2431C203.485 90.8467 203.81 91.2921 207.423 94.6775C210.665 97.7511 211.591 98.3748 212.796 98.3748C214.88 98.3748 216.548 96.6821 216.548 94.5439C216.548 93.0294 216.131 92.4948 212.703 89.154C208.395 85.0113 207.006 84.5659 204.736 86.4813Z" fill="#06AD51"/>
<path d="M170.923 99.9784C169.857 101.092 169.765 101.493 169.765 105.992C169.765 111.248 170.181 112.718 171.942 113.475C173.748 114.277 174.86 114.055 176.296 112.674C177.593 111.382 177.639 111.248 177.639 106.616C177.639 100.513 176.805 98.8648 173.563 98.8202C172.497 98.8202 171.71 99.1766 170.923 99.9784Z" fill="#06AD51"/>
</g>
<defs>
<clipPath id="clip0_43608_9">
<rect width="237" height="228" fill="white"/>
</clipPath>
</defs>
</svg>
