<svg width="215" height="199" viewBox="0 0 215 199" fill="none" xmlns="http://www.w3.org/2000/svg">
<path d="M168.515 7.92888C147.351 11.6601 129.126 29.1115 123.037 51.4213C118.334 68.756 122.071 85.6244 132.989 96.3129C134.669 97.9842 136.055 99.3834 136.055 99.5C136.055 99.6166 133.871 104.086 131.184 109.45L126.312 119.245L124.549 119.011C121.777 118.7 121.231 118.351 119.678 115.98C118.25 113.803 118.208 113.57 117.956 108.634C117.788 105.097 117.494 103.115 116.948 102.026C115.814 99.6555 59.7129 24.5252 57.6973 22.6984C56.7314 21.8045 54.8418 20.5996 53.498 19.9777C51.2725 18.9672 50.6006 18.8506 46.8213 18.8506C43 18.8506 42.3701 18.9672 39.8926 20.0554C34.3076 22.5429 31.0322 27.1293 30.7383 32.8428C30.6123 35.2525 30.7803 36.4574 31.4521 38.1676C32.04 39.7611 37.0791 46.7961 48.585 62.2652C57.5293 74.2752 65.0039 84.3029 65.1719 84.5361C65.4238 84.8859 63.7021 84.9637 58.2432 84.8082C52.7002 84.6916 50.0967 84.8082 47.0312 85.2746C39.7666 86.4406 32.418 89.2002 25.8672 93.1646C22.0879 95.4578 14.1934 102.765 11.6318 106.341C5.41699 115.047 2.51953 123.986 2.51953 134.325C2.51953 148.084 7.64258 159.511 18.2246 169.305C28.8906 179.139 41.0684 183.842 56.0596 183.842C69.833 183.842 81.8008 179.644 92.0469 171.171C93.4746 170.005 94.6504 169.111 94.6924 169.15C94.7764 169.228 94.6084 170.355 94.3564 171.715C93.4326 176.923 95.8682 183.259 100.151 186.873C107.71 193.248 118.502 193.209 125.977 186.718C134.333 179.489 133.619 167.09 124.507 160.405C123.373 159.55 122.785 158.967 123.247 159.083C123.709 159.2 124.675 159.433 125.347 159.589C126.061 159.744 127.572 160.366 128.79 160.988C130.68 161.998 131.562 162.931 136.433 169.461C139.456 173.542 141.934 177.001 141.934 177.196C141.934 177.39 141.682 177.623 141.388 177.74C140.548 178.012 139.414 180.46 139.414 181.898C139.414 186.951 148.274 191.071 154.195 188.778C156.631 187.845 164.525 182.715 165.743 181.315L166.835 180.072L169.354 181.277C173.26 183.142 176.283 183.142 184.052 181.16C187.495 180.305 190.729 179.333 191.274 179.022C192.534 178.245 193.332 176.107 192.786 174.825C192.576 174.28 190.477 171.365 188.167 168.373C184.556 163.631 184.052 162.815 184.682 162.543C185.06 162.348 188.839 160.832 193.08 159.161C200.009 156.44 200.849 156.013 201.437 154.886C202.738 152.359 202.15 151.349 195.684 145.713C192.45 142.876 189.805 140.427 189.805 140.311C189.805 140.155 192.45 138.484 195.726 136.579C199.001 134.675 202.108 132.615 202.654 132.032C203.662 130.944 203.914 129.35 203.368 128.067C203.242 127.679 200.513 125.58 197.321 123.364C188.713 117.418 191.148 117.768 165.995 119.245C154.531 119.944 145.083 120.449 145.041 120.372C144.957 120.294 146.469 117.107 148.358 113.259L151.886 106.302L156.043 106.418C161.586 106.613 166.415 105.952 171.748 104.32C200.303 95.5355 218.989 62.2652 210.969 34.5529C207.189 21.3769 197.615 11.9322 184.766 8.55075C180.692 7.50134 172.756 7.1904 168.515 7.92888ZM184.892 13.4869C189.973 15.1193 192.828 16.7906 196.733 20.4052C201.688 24.9916 204.922 30.5885 206.686 37.74C207.903 42.6373 207.987 52.5096 206.896 57.7178C202.948 75.7521 191.106 90.8715 175.317 97.9842C169.187 100.705 165.155 101.599 158.73 101.599C152.768 101.599 149.87 101.016 145.041 98.8781C132.821 93.3201 125.389 79.6389 126.103 63.9365C127.278 39.7611 145.671 17.2959 167.969 12.7873C173.428 11.6601 180.062 11.9711 184.892 13.4869ZM52.1123 24.564C53.1201 25.1082 54.2539 25.8855 54.6318 26.2742C55.5557 27.207 111.405 102.182 112.161 103.426C112.455 103.97 112.791 106.457 112.959 109.45C113.169 113.92 113.379 114.814 114.345 116.679C114.975 117.845 115.479 118.934 115.479 119.05C115.479 119.167 114.933 119.361 114.261 119.517C113.589 119.633 111.993 120.333 110.733 121.032L108.382 122.354L107.332 119.245C105.064 112.831 101.201 106.496 96.4561 101.443C93.7266 98.5283 90.0732 95.6133 89.1914 95.6133C88.3936 95.6133 86.5039 97.3623 86.5039 98.1008C86.5039 98.4117 86.9658 99.189 87.5117 99.7721L88.5615 100.899L80.2471 108.595L71.9326 116.291L70.8408 115.047C65.8438 109.567 62.8203 100.277 63.5762 92.776L63.9121 89.7443L65.4238 90.0164C66.3057 90.1719 68.4053 90.6771 70.127 91.1824C73.9482 92.3096 74.8301 92.3484 75.7539 91.3767C76.9717 90.1719 76.4678 88.5394 74.7041 87.7232C73.4023 87.1402 70.2529 83.1369 55.0098 62.6928C45.0156 49.3224 36.6172 37.6623 36.2812 36.8072C34.3076 31.599 37.2471 25.9244 43 23.8256C45.1836 23.0093 49.9707 23.398 52.1123 24.564ZM58.2432 89.3945C58.7471 89.3945 58.7891 90.0164 58.5371 93.0092C57.8652 101.404 60.8047 110.616 66.1797 117.107C67.1875 118.312 68.0273 119.439 68.0273 119.633C68.0273 119.789 65.3398 122.393 62.0225 125.463L56.0596 130.982L39.6826 115.824L23.3057 100.666L24.5654 99.6943C29.4785 95.9242 37.0791 92.3096 43.3359 90.7549C47.4512 89.7443 54.2119 88.967 56.4375 89.2391C57.1094 89.3168 57.9072 89.3945 58.2432 89.3945ZM143.865 103.464C145.461 104.125 146.805 104.708 146.889 104.747C146.973 104.825 145.251 108.401 143.067 112.754L139.12 120.683L137.272 120.877C135.719 121.032 131.981 120.644 131.52 120.294C131.268 120.1 140.338 102.221 140.674 102.221C140.842 102.221 142.312 102.765 143.865 103.464ZM36.1973 119.206L52.4902 134.286L46.5273 139.805C43.21 142.876 40.3965 145.363 40.2285 145.363C40.0186 145.363 38.7168 144.547 37.2891 143.575C29.9404 138.562 20.2402 135.996 11.0439 136.618L7.13867 136.89V133.82C7.13867 127.834 9.19629 119.75 12.0098 114.58C14.0254 110.888 18.9805 104.203 19.7363 104.164C19.8623 104.164 27.2529 110.927 36.1973 119.206ZM96.3721 109.022C100.025 114.153 101.873 118.001 103.301 123.403C103.847 125.424 103.973 126.629 103.721 126.862C103.007 127.523 93.7266 127.329 90.2832 126.552C86.5879 125.735 79.4072 122.626 77.1396 120.838L75.502 119.594L83.8164 111.899L92.1309 104.203L93.1387 105.058C93.6846 105.524 95.1543 107.312 96.3721 109.022ZM76.1318 125.93C83.1865 130.322 93.8525 132.77 101.705 131.837L104.477 131.527L104.771 132.77C105.148 134.753 104.225 142.137 103.091 146.102C101.411 151.932 97.4639 158.967 93.6426 163.009L92.2568 164.486L75.9219 149.367L59.6289 134.286L65.8018 128.573L71.9746 122.82L73.0664 123.753C73.6543 124.258 75.04 125.23 76.1318 125.93ZM188.293 123.364C189.091 123.675 191.526 125.191 193.794 126.746C197.027 129 197.699 129.661 197.279 130.011C196.355 130.827 185.438 137.085 184.514 137.357C184.052 137.473 173.512 136.89 161.124 136.035C148.736 135.18 137.818 134.48 136.895 134.48C134.921 134.48 134.963 134.986 136.433 128.845C137.146 125.735 137.146 125.735 138.616 125.619C142.647 125.269 181.994 122.898 184.262 122.859C185.689 122.859 187.537 123.054 188.293 123.364ZM121.777 123.403C121.777 123.637 115.604 150.299 115.185 151.854C115.059 152.437 114.639 152.748 114.135 152.748C112.539 152.748 110.062 151.854 108.676 150.805L107.332 149.755L108.256 146.296C109.432 141.71 110.062 135.53 109.768 131.604L109.474 128.417L110.859 126.94C112.371 125.347 114.597 124.181 117.032 123.637C118.838 123.248 121.777 123.092 121.777 123.403ZM130.008 124.803C131.058 125.075 131.855 125.463 131.855 125.774C131.855 126.746 125.473 154.108 125.179 154.419C124.759 154.808 120.098 153.875 120.098 153.409C120.098 152.942 126.312 125.696 126.606 124.841C126.816 124.258 127.572 124.258 130.008 124.803ZM88.0996 168.178C87.8896 168.45 86.4199 169.539 84.8662 170.588C76.9717 176.029 67.1035 179.139 57.4873 179.217C55.1777 179.217 53.2041 179.178 53.1621 179.1C53.1201 179.061 53.1621 177.662 53.3301 176.068C53.666 172.298 53.1621 166.973 52.0703 163.281C50.9785 159.511 47.9971 153.914 45.6035 151.193L43.7559 149.056L49.8867 143.303L56.0596 137.59L72.3105 152.631C84.7822 164.175 88.4775 167.79 88.0996 168.178ZM161.04 140.738L184.514 142.293L190.183 147.268C193.29 149.988 195.894 152.398 195.978 152.593C196.062 152.787 192.45 154.38 187.957 156.129L179.811 159.317L156.463 151.465L133.073 143.614L133.367 142.06C133.871 139.106 134.165 138.795 135.929 138.989C136.811 139.106 148.106 139.883 161.04 140.738ZM20.1982 141.71C22.1299 142.021 25.1113 142.837 26.791 143.459C29.8564 144.586 35.0215 147.423 35.9873 148.512C36.4072 149.017 35.1055 150.377 28.0928 156.868L19.7363 164.603L18.6865 163.437C14.5293 158.811 10.792 152.359 8.98633 146.607C7.55859 142.021 7.60059 141.554 9.57422 141.36C13.2275 141.01 16.9229 141.127 20.1982 141.71ZM157.807 156.829C168.473 160.405 177.711 163.709 178.299 164.097C179.349 164.875 187.495 175.252 187.201 175.485C187.159 175.524 184.892 176.146 182.204 176.807C174.058 178.828 176.451 179.566 151.844 167.245C140.044 161.338 130.302 156.479 130.26 156.402C130.176 156.363 130.512 154.458 131.016 152.204L131.939 148.123L135.173 149.211C136.937 149.833 147.099 153.253 157.807 156.829ZM44.9316 159.161C47.6611 164.408 48.459 167.712 48.459 173.464C48.417 175.991 48.249 178.206 48.0391 178.4C47.5771 178.828 42.1602 177.701 38.7168 176.457C33.8037 174.708 28.3447 171.754 24.7754 168.956L23.3896 167.867L31.7461 160.094L40.1025 152.32L41.4883 153.797C42.2861 154.614 43.7979 157.023 44.9316 159.161ZM107.878 155.819L110.188 156.907L108.676 157.179C107.836 157.334 106.072 157.917 104.771 158.539C103.511 159.161 102.503 159.55 102.545 159.394C104.393 156.052 105.19 154.691 105.4 154.691C105.526 154.73 106.618 155.236 107.878 155.819ZM119.132 162.854C121.987 164.175 124.129 166.196 125.641 169.033C126.984 171.521 126.984 176.612 125.683 179.255C124.423 181.821 121.651 184.425 118.88 185.669C116.864 186.601 116.024 186.757 112.959 186.757C108.886 186.757 106.66 186.018 103.973 183.803C100.655 181.121 98.8076 176.846 99.2695 172.998C100.445 163.864 110.271 158.85 119.132 162.854ZM148.19 170.744L150.458 171.91L149.45 172.57C148.946 172.959 147.98 173.542 147.393 173.853L146.259 174.475L143.697 171.016C142.27 169.111 141.094 167.44 141.094 167.323C141.094 167.168 142.186 167.634 143.529 168.334C144.831 168.995 146.931 170.083 148.19 170.744ZM158.94 176.107C160.662 176.962 162.09 177.856 162.09 178.051C162.09 178.206 161.082 179.061 159.906 179.877C153.313 184.386 151.13 185.241 148.316 184.541C146.721 184.153 144.453 182.481 144.453 181.743C144.495 181.315 154.825 174.553 155.497 174.514C155.665 174.514 157.219 175.213 158.94 176.107Z" fill="#06AD51"/>
<path d="M170.404 17.879C149.366 20.211 131.016 41.8211 131.016 64.3252C131.016 69.5723 131.52 72.604 133.157 77.1514C136.265 85.7799 142.773 92.193 151.172 94.8749C155.245 96.1575 162.384 96.3518 167.213 95.2635C184.22 91.5323 198.749 75.6745 202.234 56.9794C202.738 54.3752 202.864 51.9266 202.696 47.8067C202.444 41.0438 201.563 37.5846 198.749 32.2598C195.096 25.4581 188.167 20.1333 180.776 18.5008C177.333 17.7235 173.722 17.5292 170.404 17.879ZM179.391 22.9706L180.944 23.3204L179.643 25.9633C178.929 27.4014 178.299 28.6063 178.257 28.684C178.089 28.8395 167.969 24.3698 167.969 24.1366C167.969 24.02 168.137 23.6313 168.347 23.3592C169.103 22.2321 175.401 22.0378 179.391 22.9706ZM189.553 28.4508C193.206 31.9489 194.214 33.4258 193.458 34.3586C192.954 34.9805 192.534 34.9028 187.999 32.9206C185.312 31.7157 183.086 30.5885 183.086 30.3553C183.086 29.4614 185.396 25.6524 185.941 25.6524C186.277 25.6524 187.873 26.935 189.553 28.4508ZM160.704 26.352C161.082 26.5463 160.704 27.6346 159.402 30.3165C158.395 32.3376 157.387 34.0477 157.177 34.0866C156.967 34.1643 155.497 33.6979 153.943 33.0372L151.088 31.8323L152.894 30.3942C155.035 28.6452 159.192 26.0411 159.78 26.0411C160.032 26.0411 160.41 26.1965 160.704 26.352ZM170.992 30.7829C173.722 31.91 175.947 32.9594 175.947 33.076C175.947 33.2315 175.107 35.0194 174.058 37.0793L172.21 40.8106L168.095 39.0227C165.827 38.051 163.56 37.0793 163.056 36.885C162.51 36.6907 162.09 36.4575 162.09 36.302C162.09 35.8745 165.659 28.7618 165.869 28.7618C165.995 28.7618 168.305 29.6557 170.992 30.7829ZM186.151 37.2737L190.98 39.3336L189.133 43.0649C188.083 45.1249 187.201 46.835 187.117 46.9128C187.075 46.9905 184.766 46.0965 181.994 44.9305C178.845 43.5702 177.039 42.5985 177.123 42.2876C177.459 41.0438 180.734 34.9805 180.986 35.0583C181.154 35.136 183.464 36.1077 186.151 37.2737ZM154.447 38.362C154.699 38.4786 154.951 38.6729 154.951 38.8284C154.993 39.4114 151.424 46.252 151.088 46.252C150.752 46.252 142.773 42.8706 142.438 42.5985C142.27 42.4042 143.991 39.8001 146.007 37.2348L147.435 35.4081L150.668 36.7684C152.432 37.5458 154.153 38.2454 154.447 38.362ZM165.197 42.9483L170.068 45.0471L168.683 47.8844C167.885 49.4391 167.003 51.1881 166.667 51.7323L166.079 52.7817L161.25 50.7217C158.604 49.5946 156.379 48.5063 156.295 48.2731C156.127 47.8067 159.57 40.8106 159.99 40.8106C160.158 40.8106 162.51 41.7823 165.197 42.9483ZM197.447 43.337C197.615 44.192 197.741 46.4075 197.741 48.2731L197.783 51.6545L194.844 50.4497C193.248 49.7889 191.904 49.0893 191.904 48.9338C191.904 48.7395 192.702 47.0294 193.668 45.086C195.096 42.1321 195.558 41.5879 196.271 41.6657C196.943 41.7434 197.195 42.171 197.447 43.337ZM144.705 48.8172C147.015 49.7889 148.904 50.644 148.988 50.7217C149.114 50.8383 145.839 57.7567 145.419 58.262C145.293 58.4174 138.91 55.8911 137.776 55.2303C137.314 54.9583 137.272 54.5696 137.692 53.0926C138.406 50.4885 139.834 47.0294 140.212 47.0294C140.422 47.0294 142.438 47.8456 144.705 48.8172ZM180.692 49.5169C182.918 50.4885 184.766 51.4213 184.766 51.5768C184.766 51.81 181.784 57.9899 181.154 59.0004C181.07 59.1559 171.622 55.1915 171.202 54.8417C171.034 54.6862 171.748 52.8594 172.756 50.7995C174.939 46.4852 174.016 46.6407 180.692 49.5169ZM158.982 54.8805C161.628 55.9688 163.77 57.096 163.77 57.3292C163.77 57.6012 162.972 59.3891 162.006 61.3325L160.2 64.8305L155.203 62.7317C152.432 61.5657 150.122 60.5551 150.038 60.4774C149.828 60.3219 153.649 52.8594 153.943 52.8594C154.111 52.8594 156.379 53.7534 158.982 54.8805ZM195.684 55.9688C197.279 56.7073 197.279 56.7073 196.901 58.3786C196.439 60.2442 194.844 64.9083 194.634 64.9083C194.55 64.9083 192.534 64.0532 190.099 63.0038L185.647 61.0604L187.579 57.2126L189.511 53.3258L191.82 54.2975C193.08 54.8028 194.802 55.5413 195.684 55.9688ZM173.554 61.0604C176.115 62.1487 178.383 63.1592 178.593 63.3147C178.845 63.5479 175.359 71.127 174.939 71.127C174.52 71.127 165.029 66.8127 165.029 66.6184C165.029 66.3075 168.557 59.0782 168.725 59.0782C168.767 59.0782 170.95 59.9721 173.554 61.0604ZM139.666 61.2547C141.514 62.0321 143.025 62.6928 143.109 62.7317C143.235 62.8872 139.456 70.3497 139.246 70.3497C139.162 70.3497 138.406 70.0776 137.566 69.7667L136.055 69.1836V64.5196C136.055 61.9543 136.139 59.8555 136.223 59.8555C136.307 59.8555 137.86 60.4774 139.666 61.2547ZM153.062 66.9293C155.707 68.0565 157.891 69.067 157.891 69.2225C157.891 69.378 157.051 71.2047 156.043 73.2258L154.153 76.9182L149.198 74.7805C146.469 73.5756 144.201 72.5651 144.117 72.4874C143.907 72.293 147.603 64.9083 147.896 64.9083C148.106 64.9083 150.416 65.8022 153.062 66.9293ZM192.072 69.067C192.66 69.378 192.492 69.8833 190.645 72.7206C189.469 74.5085 188.335 76.1409 188.167 76.2963C187.999 76.4518 186.025 75.8299 183.758 74.8583L179.727 73.1092L180.734 71.0493C181.28 69.9221 182.12 68.1731 182.624 67.1626L183.548 65.3358L187.453 67.0071C189.637 67.9399 191.736 68.8727 192.072 69.067ZM167.003 72.9149C169.271 73.8866 171.538 74.8583 172.042 75.0526C173.008 75.3635 173.008 75.3635 171.076 79.1725C170.068 81.2325 169.145 83.0204 169.061 83.0592C168.977 83.137 166.667 82.2042 163.854 80.9604L158.814 78.7061L160.746 74.8971C161.796 72.8372 162.678 71.127 162.762 71.127C162.804 71.127 164.735 71.9432 167.003 72.9149ZM147.015 78.9393C149.66 80.0665 151.844 80.9993 151.928 81.077C152.222 81.2713 148.526 88.2286 148.106 88.2286C146.721 88.2286 140.254 81.7766 140.254 80.3774C140.254 79.5612 141.556 76.9571 141.976 76.9571C142.102 76.9571 144.411 77.851 147.015 78.9393ZM184.346 80.5329C184.346 80.8049 179.349 84.8083 177.795 85.7799C176.997 86.2463 176.535 86.2852 175.317 85.8965C174.52 85.6633 173.848 85.3135 173.848 85.1192C173.848 84.9249 174.688 83.137 175.695 81.077L177.543 77.3846L180.944 78.8227C182.834 79.6001 184.346 80.3774 184.346 80.5329ZM161.838 85.2747C164.525 86.4407 166.709 87.4901 166.709 87.6067C166.709 87.7233 166.415 88.5395 166.037 89.3946C165.575 90.444 165.029 91.027 164.315 91.1825C162.846 91.5323 154.447 91.1825 153.649 90.7161C153.062 90.4051 153.229 89.8999 154.783 86.7516C155.791 84.8083 156.673 83.1758 156.799 83.1758C156.883 83.1758 159.192 84.1087 161.838 85.2747Z" fill="#06AD51"/>
<path d="M40.9003 32.4929C39.9765 33.7367 40.4384 35.1359 42.1181 36.3019C43.2099 37.0404 43.3779 37.0404 44.4277 36.4962C45.9394 35.7578 46.1494 33.9699 44.9316 32.5318C43.7138 31.1326 41.8662 31.0937 40.9003 32.4929Z" fill="#06AD51"/>
<path d="M46.1075 38.5563C44.3438 39.8777 44.5118 40.2275 54.5899 54.1809C63.5342 66.6184 64.3321 67.6289 65.4239 67.6289C66.8096 67.6289 68.0274 66.5795 68.0274 65.3746C68.0274 64.5584 51.3565 40.9272 49.4249 38.9449C48.459 38.0121 47.1153 37.8178 46.1075 38.5563Z" fill="#06AD51"/>
</svg>
