<svg width="161" height="161" viewBox="0 0 161 161" fill="none" xmlns="http://www.w3.org/2000/svg">
<path d="M64.7773 8.52168C58.6455 9.52792 44.4951 11.8549 33.332 13.6787C22.1689 15.5025 12.4523 17.2006 11.7291 17.4836C10.1568 18.0496 7.76699 20.5338 6.82363 22.5777C6.19472 23.9299 6.13183 24.6531 6.0375 31.5082C5.88027 42.2625 6.19472 43.0486 12.2322 46.8221L15.1881 48.6773L15.1252 58.7398C15.0623 65.1861 15.1881 69.274 15.4082 70.0916C16.0686 72.6072 17.3893 73.8021 24.2758 78.1416C27.8605 80.3742 30.7535 82.3238 30.7221 82.4496C30.6906 82.5754 23.867 87.4494 15.5654 93.2982C4.05644 101.411 0.408786 104.147 0.188669 104.807C-0.0314482 105.405 -2.8424e-06 106.065 0.25156 107.008C2.20117 113.58 2.89297 117.039 3.05019 120.436C3.23886 124.492 2.92441 126.536 1.03769 133.58C-0.188675 138.202 -0.125784 139.24 1.50937 139.9C1.98105 140.089 20.1879 143.422 41.9795 147.353C69.6514 152.29 82.0408 154.396 83.0785 154.302C84.9023 154.145 84.9652 154.113 96.3484 146.001C101.254 142.51 113.738 133.705 124.083 126.41C134.429 119.146 143.296 112.731 143.799 112.165C145.214 110.53 145.875 108.235 146.095 104.241C146.221 102.26 146.378 100.625 146.441 100.625C147.573 100.625 158.925 98.6125 159.648 98.2666C161.094 97.6063 161.22 96.6943 160.245 93.2982C159.05 89.1475 158.17 83.7074 158.17 80.4057C158.17 77.2926 158.83 74.0223 160.182 70.2488C160.623 69.0225 161 67.7646 161 67.4816C161 66.098 159.962 65.1547 155.277 62.2303C152.636 60.5637 147.919 57.5764 144.806 55.5953C141.693 53.6143 136.032 50.0609 132.228 47.6396C128.423 45.2498 125.247 43.2373 125.152 43.1744C125.089 43.1115 125.278 42.3883 125.593 41.5707C126.662 38.835 126.536 37.1055 125.215 36.2879C124.932 36.0992 119.178 32.4201 112.417 28.1436C78.4561 6.60352 78.4561 6.60352 77.1668 6.63496C76.475 6.66641 70.9092 7.51543 64.7773 8.52168ZM96.8516 24.433C111.065 33.4264 116.473 37.0111 116.096 37.1684C115.656 37.3256 77.7643 43.5518 63.5195 45.7844L60.2178 46.3189L40.8789 34.0553C30.2504 27.326 21.257 21.6658 20.9111 21.4771C20.3451 21.1627 20.408 21.0998 21.3828 20.9426C22.3891 20.7539 36.2564 18.4898 61.1611 14.4334C66.5383 13.5529 71.9783 12.6725 73.2676 12.4209C74.5568 12.2008 75.9719 12.0121 76.3492 11.9807C76.8209 11.9492 84.3363 16.5088 96.8516 24.433ZM34.0553 35.8791C44.9982 42.7971 54.023 48.583 54.1488 48.6773C54.2746 48.8031 53.9916 49.6836 53.5199 50.627C52.7023 52.2936 52.6709 52.5451 52.5137 59.2115L52.3564 66.0666L35.0615 55.1236C25.565 49.0861 16.4459 43.3316 14.8422 42.3254C13.2385 41.3191 11.792 40.25 11.6348 39.9355C11.1945 39.0865 11.226 25.3135 11.6662 24.433C12.3895 23.0494 12.924 22.6406 13.5844 22.9865C13.8988 23.1752 23.1123 28.9611 34.0553 35.8791ZM119.083 44.2436C118.109 47.5453 118.171 53.6457 119.272 57.2305C119.712 58.7084 120.027 59.9662 119.932 60.0291C119.712 60.2492 58.3625 70.0916 58.1109 69.9344C57.7021 69.6828 57.7965 53.6143 58.2053 52.7023C58.6141 51.7904 58.048 51.9477 67.293 50.4383C71.1922 49.8408 84.2105 47.7025 96.2227 45.7529C108.235 43.8033 118.454 42.1996 118.895 42.1682L119.712 42.1367L119.083 44.2436ZM138.485 57.7021C145.309 62.0102 150.906 65.6264 150.937 65.7207C150.937 65.8779 133.108 68.8652 96.1598 74.8713L80.5 77.3869L77.041 75.2486C74.4311 73.6135 73.7393 73.0475 74.148 72.8902C74.4311 72.7645 85.7828 70.8777 99.3672 68.708C112.952 66.5383 124.366 64.6516 124.775 64.5572C125.687 64.3371 126.41 63.2994 126.41 62.2303C126.41 61.7586 126.033 60.5637 125.593 59.5574C124.146 56.2557 123.454 52.891 123.549 49.4006L123.58 48.3629L124.806 49.0861C125.467 49.4949 131.63 53.3627 138.485 57.7021ZM31.9484 59.4631C45.1869 67.9848 54.7148 74.0223 55.9412 74.6512C57.1361 75.2801 58.677 75.2801 62.5133 74.6512L65.5635 74.148L70.0287 76.9467L74.4625 79.7453L73.5506 80.7201C72.0727 82.4182 71.9154 83.4244 71.7896 92.9838C71.6953 97.8893 71.601 101.883 71.5381 101.883C71.4752 101.883 61.8844 95.8453 50.2496 88.4871C38.6148 81.1289 27.2631 73.9279 25.0305 72.5129C21.9174 70.5633 20.8797 69.7457 20.5652 68.9596C20.2193 68.2049 20.125 65.9723 20.125 59.8719V51.8219L20.8797 52.2936C21.2885 52.5766 26.2568 55.784 31.9484 59.4631ZM154.271 71.4437C153.202 75.4059 152.761 78.6447 152.95 81.7578C153.139 85.1539 153.736 89.0846 154.522 92.1348C154.774 93.0781 154.931 93.8957 154.9 93.9272C154.805 94.0215 81.8207 105.813 79.3365 106.159C77.9215 106.348 77.7014 106.285 77.3869 105.719C77.1668 105.279 77.041 101.757 77.041 95.2164C77.041 85.94 77.0725 85.3111 77.6699 84.3363C78.0158 83.7703 78.6133 83.1729 78.9906 83.0156C79.3994 82.8584 82.9842 82.1981 86.9463 81.6006C90.9398 80.9717 107.543 78.2674 123.895 75.626C140.246 72.9846 153.799 70.7834 154.051 70.7834C154.334 70.752 154.396 70.9721 154.271 71.4437ZM50.2496 94.7447C74.4939 110.31 75.2801 110.813 76.5064 111.222C77.5441 111.599 78.4246 111.505 83.8018 110.688C87.1664 110.184 90.1537 109.744 90.4367 109.744C91.0656 109.744 81.632 116.536 80.6572 116.819C80.1227 116.977 66.3496 114.555 16.9176 105.593C12.7982 104.839 9.43359 104.178 9.43359 104.084C9.46504 103.927 35.5332 85.5312 35.7533 85.5312C35.8162 85.5312 42.3254 89.682 50.2496 94.7447ZM140.812 104.524C140.749 106.946 140.592 107.669 140.057 108.361C139.523 109.084 89.965 144.334 89.4934 144.334C89.399 144.334 89.3047 139.9 89.2418 134.492C89.1475 125.184 89.0846 124.586 88.4242 122.888C88.0154 121.913 87.418 120.75 87.0406 120.278C86.6947 119.807 86.5061 119.335 86.6633 119.178C86.8205 119.052 90.5625 116.379 94.9648 113.266L102.983 107.637L113.36 105.971C119.083 105.059 127.354 103.707 131.756 102.983C136.158 102.229 140.026 101.631 140.34 101.6C140.875 101.568 140.938 101.82 140.812 104.524ZM27.8291 112.889C50.9729 116.977 78.0473 121.819 80.4057 122.322C82.2924 122.731 83.4873 123.895 83.8018 125.561C84.1477 127.416 83.8332 148.673 83.4559 149.051C83.2043 149.302 79.4937 148.736 69.9344 147.038C46.4762 142.825 18.2383 137.762 12.1693 136.693C8.93047 136.095 6.22617 135.561 6.16328 135.498C6.06894 135.435 6.44629 133.674 6.91797 131.599C8.36445 125.655 8.6789 122.542 8.23867 118.769C7.92422 116.033 7.04375 111.725 6.41484 109.618C6.25761 109.147 6.35195 109.084 7.13808 109.241C7.60976 109.335 16.949 110.971 27.8291 112.889Z" fill="#06AD51"/>
</svg>
